# xmcd
#
# Track frame offsets:
#	150
#	16683
#	31631
#	47780
#	64440
#	84062
#	104694
#	122939
#	140870
#	157939
#	175455
#
# Disc length: 2603 seconds
#
# Revision: 1
# Processed by: cddbd v1.5.2PL0 Copyright (c) Steve Scherf et al.
# Submitted via: audiograbber 1.83.01
#
DISCID=8f0a290b
DTITLE=Tony Haven - The Driftwood
DYEAR=2011
DGENRE=
TTITLE0=Waves
TTITLE1=Changes
TTITLE2=All Roads Lead to Home
TTITLE3=Archives
TTITLE4=The Hunt
TTITLE5=Meteoric
TTITLE6=Cocoon
TTITLE7=Free Running
TTITLE8=Pictures in Motion
TTITLE9=Without a Trace
TTITLE10=Showdown
EXTD=
EXTT0=
EXTT1=
EXTT2=
EXTT3=
EXTT4=
EXTT5=
EXTT6=
EXTT7=
EXTT8=
EXTT9=
EXTT10=
PLAYORDER=
